<svg width="30" height="30" viewBox="0 0 30 30" fill="none" xmlns="http://www.w3.org/2000/svg">
<mask id="path-1-inside-1_1_5" fill="white">
<rect width="30" height="30" rx="1"/>
</mask>
<rect width="30" height="30" rx="1" stroke="#CD5FF8" stroke-width="4" mask="url(#path-1-inside-1_1_5)"/>
<path d="M8.66016 24C8.0498 24 7.74463 23.7355 7.74463 23.2065V22.2056C7.74463 21.644 7.95215 21.0785 8.36719 20.5088L16.3018 9.54688V9.46143C15.8135 9.50212 15.3252 9.52246 14.8369 9.52246H9.14844C8.53809 9.52246 8.23291 9.25798 8.23291 8.729V7.28857C8.23291 6.7596 8.53809 6.49512 9.14844 6.49512H20.2812C20.8916 6.49512 21.1968 6.7596 21.1968 7.28857V8.10645C21.1968 8.53776 21.0544 8.94873 20.7695 9.33936L12.3467 20.9482V21.0337C12.835 20.993 13.3232 20.9727 13.8115 20.9727H20.623C21.2334 20.9727 21.5386 21.2371 21.5386 21.7661V23.2065C21.5386 23.7355 21.2334 24 20.623 24H8.66016Z" fill="#CD5FF8"/>
</svg>
