<svg width="12" height="26" viewBox="0 0 12 26" fill="none" xmlns="http://www.w3.org/2000/svg">
<path d="M8.30089 2.89788C7.21328 1.60319 6.27673 0.28827 6.08539 0.0151721C6.06525 -0.00505737 6.03503 -0.00505737 6.01489 0.0151721C5.82355 0.28827 4.88699 1.60319 3.79938 2.89788C-5.53594 14.8434 5.26968 22.9049 5.26968 22.9049L5.36031 22.9656C5.44087 24.2097 5.64228 26 5.64228 26H6.0451H6.44792C6.44792 26 6.64934 24.2198 6.7299 22.9656L6.82052 22.8948C6.8306 22.8948 17.6362 14.8434 8.30089 2.89788ZM6.0451 22.7228C6.0451 22.7228 5.56172 22.3081 5.43081 22.0957V22.0755L6.01489 9.06788C6.01489 9.02742 6.07532 9.02742 6.07532 9.06788L6.6594 22.0755V22.0957C6.52848 22.3081 6.0451 22.7228 6.0451 22.7228Z" fill="white"/>
</svg>
